<?xml version="1.0" encoding="UTF-8"?>
<svg xmlns="http://www.w3.org/2000/svg" xmlns:xlink="http://www.w3.org/1999/xlink" width="50pt" height="50pt" viewBox="0 0 50 50" version="1.1">
<g id="surface1">
<path style=" stroke:none;fill-rule:nonzero;fill:rgb(82.745098%,51.764706%,23.921569%);fill-opacity:1;" d="M 22.371094 35.308594 L 22.371094 47.382812 C 22.371094 48.828125 23.542969 50 24.984375 50 C 26.429688 50 27.601562 48.828125 27.601562 47.382812 L 27.601562 35.308594 Z M 22.371094 35.308594 "/>
<path style=" stroke:none;fill-rule:nonzero;fill:rgb(77.647059%,36.078431%,21.960784%);fill-opacity:1;" d="M 24.382812 47.382812 L 24.382812 35.308594 L 22.371094 35.308594 L 22.371094 47.382812 C 22.371094 48.828125 23.542969 50 24.984375 50 C 25.34375 50 25.683594 49.929688 25.992188 49.800781 C 25.046875 49.40625 24.382812 48.472656 24.382812 47.382812 Z M 24.382812 47.382812 "/>
<path style=" stroke:none;fill-rule:nonzero;fill:rgb(100%,84.313725%,50.980392%);fill-opacity:1;" d="M 25.5 0.0117188 C 19.300781 -0.277344 14.160156 4.777344 14.160156 10.980469 L 14.160156 34.5625 C 14.160156 35.085938 14.585938 35.511719 15.105469 35.511719 L 34.785156 35.511719 C 35.351562 35.511719 35.8125 35.050781 35.8125 34.480469 L 35.8125 10.824219 C 35.8125 5.019531 31.242188 0.28125 25.5 0.0117188 Z M 25.5 0.0117188 "/>
<path style=" stroke:none;fill-rule:nonzero;fill:rgb(99.215686%,74.117647%,25.098039%);fill-opacity:1;" d="M 16.171875 34.5625 L 16.171875 10.980469 C 16.171875 5.285156 20.503906 0.5625 26.003906 0.046875 C 25.835938 0.03125 25.667969 0.0195312 25.5 0.0117188 C 19.300781 -0.277344 14.160156 4.777344 14.160156 10.980469 L 14.160156 34.5625 C 14.160156 35.085938 14.585938 35.511719 15.105469 35.511719 L 17.121094 35.511719 C 16.597656 35.511719 16.171875 35.085938 16.171875 34.5625 Z M 16.171875 34.5625 "/>
<path style=" stroke:none;fill-rule:nonzero;fill:rgb(91.764706%,32.941176%,44.313725%);fill-opacity:1;" d="M 25.5 0.0117188 C 19.300781 -0.277344 14.160156 4.777344 14.160156 10.980469 L 14.160156 25.394531 L 16.742188 25.394531 C 17.203125 25.394531 17.574219 25.769531 17.574219 26.226562 L 17.574219 28.988281 C 17.574219 29.957031 18.382812 30.738281 19.363281 30.691406 C 20.28125 30.648438 20.988281 29.859375 20.988281 28.941406 L 20.988281 24.269531 C 20.988281 23.296875 21.796875 22.515625 22.777344 22.5625 C 23.699219 22.605469 24.402344 23.398438 24.402344 24.316406 L 24.402344 27.40625 C 24.402344 28.375 25.210938 29.15625 26.195312 29.109375 C 27.113281 29.066406 27.816406 28.277344 27.816406 27.355469 L 27.816406 26.160156 C 27.816406 25.738281 28.160156 25.394531 28.582031 25.394531 L 35.8125 25.394531 L 35.8125 10.824219 C 35.8125 5.019531 31.242188 0.28125 25.5 0.0117188 Z M 25.5 0.0117188 "/>
<path style=" stroke:none;fill-rule:nonzero;fill:rgb(85.490196%,10.980392%,29.411765%);fill-opacity:1;" d="M 26.003906 0.046875 C 25.835938 0.03125 25.667969 0.0195312 25.5 0.0117188 C 19.300781 -0.277344 14.160156 4.777344 14.160156 10.980469 L 14.160156 25.394531 L 16.171875 25.394531 L 16.171875 10.980469 C 16.171875 5.285156 20.503906 0.5625 26.003906 0.046875 Z M 26.003906 0.046875 "/>
<path style=" stroke:none;fill-rule:nonzero;fill:rgb(85.490196%,10.980392%,29.411765%);fill-opacity:1;" d="M 19.585938 28.988281 L 19.585938 26.226562 C 19.585938 25.769531 19.214844 25.394531 18.753906 25.394531 L 16.742188 25.394531 C 17.203125 25.394531 17.574219 25.769531 17.574219 26.226562 L 17.574219 28.988281 C 17.574219 29.957031 18.382812 30.738281 19.363281 30.691406 C 19.710938 30.675781 20.023438 30.554688 20.28125 30.359375 C 19.859375 30.050781 19.585938 29.550781 19.585938 28.988281 Z M 19.585938 28.988281 "/>
<path style=" stroke:none;fill-rule:nonzero;fill:rgb(85.490196%,10.980392%,29.411765%);fill-opacity:1;" d="M 26.414062 27.40625 C 26.414062 26.136719 26.414062 25.585938 26.414062 24.316406 C 26.414062 23.398438 25.710938 22.605469 24.792969 22.5625 C 24.378906 22.542969 24 22.671875 23.699219 22.894531 C 24.128906 23.21875 24.402344 23.742188 24.402344 24.316406 L 24.402344 27.40625 C 24.402344 28.375 25.214844 29.15625 26.195312 29.109375 C 26.539062 29.09375 26.851562 28.972656 27.113281 28.777344 C 26.691406 28.464844 26.414062 27.96875 26.414062 27.40625 Z M 26.414062 27.40625 "/>
<path style=" stroke:none;fill-rule:nonzero;fill:rgb(77.647059%,36.078431%,21.960784%);fill-opacity:1;" d="M 25.5 0.0117188 C 19.300781 -0.277344 14.160156 4.777344 14.160156 10.980469 L 14.160156 13.773438 L 21.386719 13.773438 C 21.8125 13.773438 22.152344 14.117188 22.152344 14.539062 L 22.152344 15.734375 C 22.152344 16.652344 22.859375 17.445312 23.777344 17.488281 C 24.757812 17.53125 25.570312 16.75 25.570312 15.78125 C 25.570312 14.515625 25.570312 13.960938 25.570312 12.695312 C 25.570312 11.773438 26.273438 10.984375 27.195312 10.941406 C 28.171875 10.894531 28.984375 11.675781 28.984375 12.644531 L 28.984375 17.316406 C 28.984375 18.234375 29.691406 19.027344 30.609375 19.070312 C 31.589844 19.117188 32.398438 18.335938 32.398438 17.363281 L 32.398438 14.605469 C 32.398438 14.144531 32.769531 13.773438 33.230469 13.773438 L 35.8125 13.773438 L 35.8125 10.824219 C 35.8125 5.019531 31.242188 0.28125 25.5 0.0117188 Z M 25.5 0.0117188 "/>
<path style=" stroke:none;fill-rule:nonzero;fill:rgb(61.176471%,17.647059%,12.54902%);fill-opacity:1;" d="M 24.171875 15.734375 L 24.171875 14.539062 C 24.171875 14.117188 23.828125 13.773438 23.40625 13.773438 L 21.386719 13.773438 C 21.8125 13.773438 22.152344 14.117188 22.152344 14.539062 L 22.152344 15.734375 C 22.152344 16.652344 22.859375 17.445312 23.777344 17.488281 C 24.191406 17.507812 24.570312 17.378906 24.875 17.152344 C 24.445312 16.828125 24.171875 16.304688 24.171875 15.734375 Z M 24.171875 15.734375 "/>
<path style=" stroke:none;fill-rule:nonzero;fill:rgb(61.176471%,17.647059%,12.54902%);fill-opacity:1;" d="M 26.007812 0.046875 C 25.839844 0.03125 25.671875 0.0195312 25.5 0.0117188 C 19.300781 -0.277344 14.160156 4.777344 14.160156 10.980469 L 14.160156 13.773438 L 16.179688 13.773438 L 16.179688 10.980469 C 16.179688 5.289062 20.507812 0.566406 26.007812 0.046875 Z M 26.007812 0.046875 "/>
<path style=" stroke:none;fill-rule:nonzero;fill:rgb(61.176471%,17.647059%,12.54902%);fill-opacity:1;" d="M 31 17.316406 C 31 16.390625 31 13.722656 31 12.644531 C 31 11.675781 30.191406 10.894531 29.210938 10.941406 C 28.867188 10.957031 28.550781 11.078125 28.289062 11.273438 C 28.710938 11.585938 28.984375 12.082031 28.984375 12.644531 L 28.984375 17.316406 C 28.984375 18.234375 29.691406 19.027344 30.609375 19.070312 C 31.019531 19.089844 31.402344 18.960938 31.707031 18.734375 C 31.277344 18.414062 31 17.890625 31 17.316406 Z M 31 17.316406 "/>
</g>
</svg>
